<svg width="14" height="14" viewBox="0 0 14 14" fill="none" xmlns="http://www.w3.org/2000/svg">
<g clip-path="url(#clip0_32_6)">
<path d="M13.0804 5.71858C13.2391 5.24804 13.294 4.74957 13.2414 4.25648C13.1888 3.76338 13.0299 3.28701 12.7754 2.85919C12.0013 1.53237 10.4453 0.849867 8.92572 1.17057C8.50497 0.709753 7.96847 0.36605 7.37012 0.173983C6.77177 -0.0180836 6.13262 -0.0517518 5.51687 0.07636C4.90112 0.204472 4.33044 0.489853 3.86216 0.903843C3.39387 1.31783 3.04446 1.84586 2.84901 2.43488C2.3556 2.5345 1.88948 2.73667 1.48178 3.02787C1.07408 3.31907 0.734208 3.6926 0.48487 4.1235C-0.297708 5.44822 -0.120028 7.11917 0.924175 8.25565C0.764894 8.72596 0.709453 9.22435 0.76156 9.71746C0.813668 10.2106 0.972122 10.687 1.22632 11.115C2.00146 12.4423 3.55842 13.1247 5.07884 12.8036C5.41312 13.1742 5.82387 13.4704 6.28364 13.6723C6.74342 13.8742 7.24165 13.9772 7.74507 13.9744C9.30263 13.9758 10.6826 12.9858 11.1583 11.5255C11.6517 11.4257 12.1177 11.2234 12.5254 10.9322C12.933 10.6411 13.273 10.2676 13.5224 9.83684C14.2955 8.51449 14.1172 6.85258 13.0804 5.71858ZM7.74507 13.0599C7.12336 13.0608 6.52115 12.8463 6.04402 12.4538L6.12796 12.407L8.95367 10.801C9.024 10.7604 9.08239 10.7025 9.12311 10.6329C9.16383 10.5634 9.18548 10.4846 9.18592 10.4043V6.48164L10.3806 7.16204C10.3925 7.16801 10.4008 7.17927 10.4029 7.19235V10.4429C10.3999 11.8869 9.21168 13.0568 7.74507 13.0599ZM2.03209 10.6578C1.7203 10.1277 1.60835 9.50633 1.71594 8.90299L1.79983 8.95258L4.62838 10.5586C4.69836 10.599 4.77804 10.6204 4.85919 10.6204C4.94033 10.6204 5.02001 10.599 5.09 10.5586L8.54521 8.59725V9.95531C8.54488 9.96234 8.54296 9.96921 8.53957 9.97541C8.53618 9.98161 8.53141 9.98698 8.52563 9.99111L5.66356 11.6164C4.39169 12.3378 2.76676 11.9088 2.03209 10.6578ZM1.28785 4.59734C1.6018 4.06385 2.09735 3.65693 2.68675 3.44864V6.75426C2.68569 6.83413 2.70641 6.91281 2.74677 6.98211C2.78712 7.0514 2.84562 7.10876 2.91617 7.1482L6.35459 9.10131L5.15994 9.7817C5.15348 9.78508 5.14628 9.78684 5.13897 9.78684C5.13166 9.78684 5.12446 9.78508 5.118 9.7817L2.2615 8.15927C0.992152 7.43482 0.556839 5.83613 1.28785 4.58361V4.59734ZM11.1024 6.84246L7.65271 4.87007L8.84462 4.19242C8.85109 4.18904 8.8583 4.18727 8.86562 4.18727C8.87294 4.18727 8.88015 4.18904 8.88662 4.19242L11.7431 5.81771C12.1799 6.06585 12.5359 6.43119 12.7697 6.8711C13.0035 7.31101 13.1054 7.80732 13.0634 8.30209C13.0215 8.79686 12.8374 9.26967 12.5328 9.66532C12.2282 10.061 11.8155 10.3631 11.343 10.5365V7.23085C11.3405 7.15113 11.3171 7.07341 11.2749 7.00532C11.2327 6.93723 11.1733 6.88111 11.1024 6.84246ZM12.2914 5.08223L12.2075 5.03258L9.38455 3.41284C9.31414 3.37216 9.23398 3.35071 9.15235 3.35071C9.07071 3.35071 8.99055 3.37216 8.92014 3.41284L5.46767 5.37424V4.01618C5.46693 4.00928 5.4681 4.00231 5.47106 3.996C5.47401 3.9897 5.47864 3.9843 5.48446 3.98037L8.34095 2.35783C8.77874 2.1095 9.27929 1.98905 9.78406 2.01055C10.2888 2.03205 10.777 2.19461 11.1913 2.47923C11.6057 2.76385 11.9292 3.15876 12.124 3.61776C12.3188 4.07677 12.3769 4.5809 12.2914 5.07119V5.08223H12.2914ZM4.81585 7.4898L3.6212 6.81214C3.61523 6.80859 3.61012 6.80378 3.60625 6.79807C3.60237 6.79236 3.59982 6.78587 3.59878 6.77908V3.53684C3.59944 3.03946 3.7439 2.55254 4.01525 2.13301C4.28662 1.71349 4.67367 1.37869 5.13115 1.16777C5.58864 0.956849 6.09765 0.878519 6.59868 0.94194C7.09972 1.00536 7.57206 1.20791 7.96049 1.52591L7.87654 1.57275L5.05084 3.17871C4.98052 3.21933 4.92214 3.27725 4.88143 3.3468C4.84072 3.41635 4.81908 3.49513 4.81864 3.5754L4.81585 7.48985V7.4898ZM5.46488 6.11241L7.00367 5.23919L8.54521 6.11247V7.85891L7.00925 8.73219L5.46772 7.85891L5.46488 6.11241Z" fill="black" style="fill:black;fill-opacity:1;"/>
</g>
<defs>
<clipPath id="clip0_32_6">
<rect width="14" height="14" fill="white" style="fill:white;fill-opacity:1;"/>
</clipPath>
</defs>
</svg>
