<svg width="14" height="14" viewBox="0 0 14 14" fill="none" xmlns="http://www.w3.org/2000/svg">
<g clip-path="url(#clip0_32_3)">
<path d="M2.74684 9.27819L5.50074 7.7389L5.54684 7.60472L5.50074 7.53058H5.3661L4.9053 7.50237L3.33167 7.45999L1.96711 7.40349L0.645039 7.3329L0.311883 7.26224L0 6.8527L0.0318828 6.64793L0.311883 6.46086L0.712414 6.49616L1.59846 6.55614L2.92759 6.64793L3.89167 6.70442L5.32 6.8527H5.54684L5.57873 6.76091L5.50074 6.70442L5.44053 6.64793L4.0653 5.71941L2.57671 4.73794L1.79698 4.17304L1.37517 3.88704L1.16255 3.61876L1.0704 3.03272L1.45321 2.61255L1.96711 2.64791L2.09825 2.68321L2.61926 3.08212L3.73215 3.9401L5.1853 5.00623L5.39798 5.18272L5.48302 5.12269L5.49369 5.08037L5.39798 4.92146L4.60759 3.49869L3.76403 2.05119L3.38833 1.45099L3.28912 1.09091C3.25369 0.942576 3.22886 0.819027 3.22886 0.667206L3.66483 0.0776265L3.90578 0L4.48711 0.0776809L4.73167 0.289479L5.09316 1.1121L5.67798 2.40784L6.5853 4.16955L6.85114 4.69207L6.99289 5.17575L7.0461 5.32403H7.13825V5.23927L7.21263 4.24723L7.35087 3.02918L7.48557 1.46161L7.53167 1.02037L7.75141 0.490763L8.18732 0.20477L8.52759 0.36716L8.80759 0.766132L8.76859 1.0238L8.60202 2.10065L8.27597 3.78828L8.06329 4.91803H8.18732L8.32913 4.77678L8.90329 4.01773L9.86732 2.81732L10.2927 2.34072L10.7889 1.81466L11.1079 1.56402H11.7104L12.1534 2.22072L11.955 2.89855L11.3347 3.68233L10.8207 4.34605L10.0836 5.3346L9.62276 6.12546L9.6653 6.18898L9.77523 6.17841L11.441 5.82536L12.3413 5.66292L13.4152 5.47934L13.9008 5.7053L13.9539 5.9348L13.7625 6.40437L12.6142 6.68677L11.2673 6.95511L9.26127 7.42823L9.23645 7.44588L9.26483 7.48118L10.1686 7.56588L10.555 7.58707H11.5013L13.2628 7.71771L13.7236 8.02135L14 8.39205L13.9539 8.67445L13.245 9.03458L12.2881 8.80862L10.0552 8.27907L9.2896 8.08841H9.18329V8.15198L9.82127 8.77332L10.9909 9.82544L12.4547 11.1812L12.5291 11.5166L12.3413 11.7813L12.1428 11.7531L10.8562 10.7893L10.36 10.355L9.23645 9.41236H9.16207V9.51118L9.42074 9.88896L10.7889 11.9367L10.8597 12.5651L10.7605 12.7699L10.4061 12.8935L10.0162 12.8228L9.21517 11.7037L8.38939 10.4432L7.72302 9.31349L7.64154 9.35941L7.24812 13.5784L7.06382 13.7937L6.63846 13.9561L6.28409 13.6878L6.09618 13.2535L6.28403 12.3956L6.51087 11.2765L6.69517 10.3867L6.86175 9.28173L6.96101 8.91457L6.9539 8.88984L6.87241 8.90041L6.03597 10.0443L4.76356 11.7566L3.75698 12.8299L3.51597 12.9252L3.09772 12.7098L3.13671 12.325L3.37061 11.9826L4.7635 10.2173L5.6035 9.12283L6.14584 8.49092L6.14228 8.39907H6.1104L2.41008 10.7928L1.75082 10.8775L1.46727 10.6128L1.5027 10.1785L1.6374 10.0372L2.75029 9.27465L2.74684 9.27819Z" fill="#D97757" style="fill:#D97757;fill:color(display-p3 0.8510 0.4667 0.3412);fill-opacity:1;"/>
</g>
<defs>
<clipPath id="clip0_32_3">
<rect width="14" height="14" fill="white" style="fill:white;fill-opacity:1;"/>
</clipPath>
</defs>
</svg>
