<svg width="296" height="298" viewBox="0 0 296 298" fill="none" xmlns="http://www.w3.org/2000/svg">
<g clip-path="url(#clip0_32_10)">
<mask id="mask0_32_10" style="mask-type:alpha" maskUnits="userSpaceOnUse" x="0" y="0" width="296" height="298">
<path d="M141.201 4.886C143.483 -1.284 152.243 -1.185 154.385 5.034L160.37 22.404C169.31 48.3518 183.941 71.9712 203.192 91.532C222.443 111.093 245.825 126.099 271.627 135.453L290.931 142.45C297.074 144.677 297.087 153.36 290.951 155.605L271.601 162.687C246.501 171.873 223.703 186.417 204.793 205.307C185.884 224.197 171.317 246.981 162.106 272.072L154.533 292.701C152.292 298.806 143.664 298.822 141.4 292.726L133.492 271.43C124.243 246.521 109.709 223.911 90.8898 205.154C72.0703 186.396 49.4117 171.938 24.472 162.772L4.77401 155.533C-1.32799 153.29 -1.34399 144.666 4.74901 142.401L24.832 134.934C49.6676 125.7 72.216 111.212 90.935 92.4592C109.654 73.7065 124.102 51.1321 133.291 26.28L141.201 4.886Z" fill="#3186FF" style="fill:#3186FF;fill:color(display-p3 0.1922 0.5255 1.0000);fill-opacity:1;"/>
</mask>
<g mask="url(#mask0_32_10)">
<g filter="url(#filter0_f_32_10)">
<path d="M163 308C271.248 308 359 236.813 359 149C359 61.1867 271.248 -10 163 -10C54.7522 -10 -33 61.1867 -33 149C-33 236.813 54.7522 308 163 308Z" fill="#3689FF" style="fill:#3689FF;fill:color(display-p3 0.2118 0.5373 1.0000);fill-opacity:1;"/>
</g>
<g filter="url(#filter1_f_32_10)">
<path d="M33.5 215C71.3315 215 102 182.541 102 142.5C102 102.459 71.3315 70 33.5 70C-4.3315 70 -35 102.459 -35 142.5C-35 182.541 -4.3315 215 33.5 215Z" fill="#F6C013" style="fill:#F6C013;fill:color(display-p3 0.9647 0.7529 0.0745);fill-opacity:1;"/>
</g>
<g filter="url(#filter2_f_32_10)">
<path d="M19.5 221C57.3315 221 88 188.541 88 148.5C88 108.459 57.3315 76 19.5 76C-18.3315 76 -49 108.459 -49 148.5C-49 188.541 -18.3315 221 19.5 221Z" fill="#F6C013" style="fill:#F6C013;fill:color(display-p3 0.9647 0.7529 0.0745);fill-opacity:1;"/>
</g>
<g filter="url(#filter3_f_32_10)">
<path d="M194 10.5C172 82.5 65.5 134.333 22.5 135L144 -66L194 10.5Z" fill="#FA4340" style="fill:#FA4340;fill:color(display-p3 0.9804 0.2627 0.2510);fill-opacity:1;"/>
</g>
<g filter="url(#filter4_f_32_10)">
<path d="M190.5 -12.5C168.5 59.5 62 111.333 19 112L140.5 -89L190.5 -12.5Z" fill="#FA4340" style="fill:#FA4340;fill:color(display-p3 0.9804 0.2627 0.2510);fill-opacity:1;"/>
</g>
<g filter="url(#filter5_f_32_10)">
<path d="M194.5 279.5C172.5 207.5 66 155.667 23 155L144.5 356L194.5 279.5Z" fill="#14BB69" style="fill:#14BB69;fill:color(display-p3 0.0784 0.7333 0.4118);fill-opacity:1;"/>
</g>
<g filter="url(#filter6_f_32_10)">
<path d="M196.5 320.5C174.5 248.5 68 196.667 25 196L146.5 397L196.5 320.5Z" fill="#14BB69" style="fill:#14BB69;fill:color(display-p3 0.0784 0.7333 0.4118);fill-opacity:1;"/>
</g>
</g>
</g>
<defs>
<filter id="filter0_f_32_10" x="-69" y="-46" width="464" height="390" filterUnits="userSpaceOnUse" color-interpolation-filters="sRGB">
<feFlood flood-opacity="0" result="BackgroundImageFix"/>
<feBlend mode="normal" in="SourceGraphic" in2="BackgroundImageFix" result="shape"/>
<feGaussianBlur stdDeviation="18" result="effect1_foregroundBlur_32_10"/>
</filter>
<filter id="filter1_f_32_10" x="-99" y="6" width="265" height="273" filterUnits="userSpaceOnUse" color-interpolation-filters="sRGB">
<feFlood flood-opacity="0" result="BackgroundImageFix"/>
<feBlend mode="normal" in="SourceGraphic" in2="BackgroundImageFix" result="shape"/>
<feGaussianBlur stdDeviation="32" result="effect1_foregroundBlur_32_10"/>
</filter>
<filter id="filter2_f_32_10" x="-113" y="12" width="265" height="273" filterUnits="userSpaceOnUse" color-interpolation-filters="sRGB">
<feFlood flood-opacity="0" result="BackgroundImageFix"/>
<feBlend mode="normal" in="SourceGraphic" in2="BackgroundImageFix" result="shape"/>
<feGaussianBlur stdDeviation="32" result="effect1_foregroundBlur_32_10"/>
</filter>
<filter id="filter3_f_32_10" x="-41.5" y="-130" width="299.5" height="329" filterUnits="userSpaceOnUse" color-interpolation-filters="sRGB">
<feFlood flood-opacity="0" result="BackgroundImageFix"/>
<feBlend mode="normal" in="SourceGraphic" in2="BackgroundImageFix" result="shape"/>
<feGaussianBlur stdDeviation="32" result="effect1_foregroundBlur_32_10"/>
</filter>
<filter id="filter4_f_32_10" x="-45" y="-153" width="299.5" height="329" filterUnits="userSpaceOnUse" color-interpolation-filters="sRGB">
<feFlood flood-opacity="0" result="BackgroundImageFix"/>
<feBlend mode="normal" in="SourceGraphic" in2="BackgroundImageFix" result="shape"/>
<feGaussianBlur stdDeviation="32" result="effect1_foregroundBlur_32_10"/>
</filter>
<filter id="filter5_f_32_10" x="-41" y="91" width="299.5" height="329" filterUnits="userSpaceOnUse" color-interpolation-filters="sRGB">
<feFlood flood-opacity="0" result="BackgroundImageFix"/>
<feBlend mode="normal" in="SourceGraphic" in2="BackgroundImageFix" result="shape"/>
<feGaussianBlur stdDeviation="32" result="effect1_foregroundBlur_32_10"/>
</filter>
<filter id="filter6_f_32_10" x="-39" y="132" width="299.5" height="329" filterUnits="userSpaceOnUse" color-interpolation-filters="sRGB">
<feFlood flood-opacity="0" result="BackgroundImageFix"/>
<feBlend mode="normal" in="SourceGraphic" in2="BackgroundImageFix" result="shape"/>
<feGaussianBlur stdDeviation="32" result="effect1_foregroundBlur_32_10"/>
</filter>
<clipPath id="clip0_32_10">
<rect width="296" height="298" fill="white" style="fill:white;fill-opacity:1;"/>
</clipPath>
</defs>
</svg>
