<svg width="14" height="14" viewBox="0 0 14 14" fill="none" xmlns="http://www.w3.org/2000/svg">
<g clip-path="url(#clip0_32_88)">
<path d="M5.40691 8.66562L10.0612 5.21042C10.2894 5.04103 10.6155 5.1071 10.7243 5.3702C11.2965 6.7578 11.0408 8.42533 9.90234 9.57026C8.76386 10.7152 7.17977 10.9663 5.73186 10.3944L4.15015 11.1309C6.41878 12.6903 9.17362 12.3046 10.8951 10.5722C12.2606 9.19903 12.6835 7.32726 12.288 5.63932L12.2916 5.64292C11.7182 3.16326 12.4326 2.17211 13.8961 0.145368C13.9307 0.0973124 13.9654 0.0492569 14 0L12.0742 1.93663V1.93063L5.40572 8.66682" fill="black" style="fill:black;fill-opacity:1;"/>
<path d="M4.44645 9.50541C2.81816 7.9412 3.09889 5.5204 4.48827 4.12439C5.51566 3.0912 7.19891 2.66951 8.66832 3.28942L10.2464 2.55658C9.96211 2.34995 9.59775 2.12768 9.17963 1.97151C7.28971 1.1894 5.02705 1.57865 3.49074 3.12244C2.01296 4.60856 1.54826 6.89359 2.34627 8.84345C2.94241 10.3007 1.96518 11.3315 0.9808 12.3719C0.631965 12.7408 0.281936 13.1096 0 13.5L4.44526 9.50661" fill="black" style="fill:black;fill-opacity:1;"/>
</g>
<defs>
<clipPath id="clip0_32_88">
<rect width="14" height="14" fill="white" style="fill:white;fill-opacity:1;"/>
</clipPath>
</defs>
</svg>
