<svg preserveAspectRatio="none" width="100%" height="100%" overflow="visible" style="display: block;" viewBox="0 0 16 16" fill="none" xmlns="http://www.w3.org/2000/svg">
<g id="Frame">
<path id="Vector" d="M2.66641 2H13.3331C13.7013 2 13.9998 2.29843 13.9998 2.66658L13.9999 3.72379C14 3.90065 13.9297 4.07025 13.8047 4.1953L9.52833 8.4714C9.40333 8.5964 9.33307 8.766 9.33307 8.9428V13.1461C9.33307 13.5799 8.92547 13.8981 8.50473 13.7929L7.1714 13.4596C6.8746 13.3854 6.66641 13.1187 6.66641 12.8128V8.9428C6.66641 8.766 6.59617 8.5964 6.47115 8.4714L2.195 4.19526C2.06997 4.07024 1.99974 3.90067 1.99974 3.72386V2.66667C1.99974 2.29848 2.29821 2 2.66641 2Z" stroke="var(--stroke-0, black)" style="stroke:black;stroke-opacity:1;" stroke-width="1.2" stroke-linecap="round" stroke-linejoin="round"/>
</g>
</svg>
